<?xml version="1.0" encoding="UTF-8" standalone="no"?>
<!-- Created with Inkscape (http://www.inkscape.org/) -->

<svg
   xmlns:dc="http://purl.org/dc/elements/1.1/"
   xmlns:cc="http://creativecommons.org/ns#"
   xmlns:rdf="http://www.w3.org/1999/02/22-rdf-syntax-ns#"
   xmlns:svg="http://www.w3.org/2000/svg"
   xmlns="http://www.w3.org/2000/svg"
   xmlns:sodipodi="http://sodipodi.sourceforge.net/DTD/sodipodi-0.dtd"
   xmlns:inkscape="http://www.inkscape.org/namespaces/inkscape"
   width="328.64999"
   height="328.64999"
   id="svg2"
   version="1.1"
   inkscape:version="0.48.2 r9819"
   sodipodi:docname="camera.svg">
  <defs
     id="defs4" />
  <sodipodi:namedview
     id="base"
     pagecolor="#ffffff"
     bordercolor="#666666"
     borderopacity="1.0"
     inkscape:pageopacity="0.0"
     inkscape:pageshadow="2"
     inkscape:zoom="0.24748738"
     inkscape:cx="1647.9988"
     inkscape:cy="-752.44895"
     inkscape:document-units="px"
     inkscape:current-layer="layer1"
     showgrid="false"
     inkscape:window-width="1680"
     inkscape:window-height="1026"
     inkscape:window-x="0"
     inkscape:window-y="24"
     inkscape:window-maximized="1"
     fit-margin-top="0"
     fit-margin-left="0"
     fit-margin-right="0"
     fit-margin-bottom="0" />
  <metadata
     id="metadata7">
    <rdf:RDF>
      <cc:Work
         rdf:about="">
        <dc:format>image/svg+xml</dc:format>
        <dc:type
           rdf:resource="http://purl.org/dc/dcmitype/StillImage" />
        <dc:title />
      </cc:Work>
    </rdf:RDF>
  </metadata>
  <g
     inkscape:label="Laag 1"
     inkscape:groupmode="layer"
     id="layer1"
     transform="translate(-156.85715,-87.426476)">
    <g
       style="overflow:visible"
       id="g3057"
       transform="translate(166.31641,96.664253)">
      <path
         style="fill:#a2b89c;fill-rule:evenodd"
         id="path5"
         d="m 3.121,162.183 c -0.896,8.402 5.5,6.975 10.175,3.392 9.554,-7.324 19.75,-13.81 29.444,-20.973 3.143,-2.322 12.446,-6.901 13.697,-10.502 0.494,-1.422 -1.656,-7.589 -3.616,-6.318 -13.084,8.482 -26.169,16.965 -39.254,25.447 -0.859,-21.074 -1.718,-42.147 -2.577,-63.221 8.645,1.469 15.203,6.773 22.52,11.125 4.141,2.463 11.857,8.691 13.074,1.292 0.637,-3.868 2.56,-11.806 -4.527,-11.06 -3.421,0.36 -0.49,3.736 -5.055,1.98 -2.42,-0.931 -4.697,-2.123 -6.954,-3.387 -3.178,-1.779 -6.219,-3.785 -9.427,-5.512 -2.996,-1.613 -6.526,-3.548 -9.882,-4.197 -4.635,-0.896 -8.015,-2.784 -8.503,2.836 -0.725,8.344 0.693,16.732 1.356,25.038 1.452,18.167 1.042,35.907 -0.471,54.06"
         inkscape:connector-curvature="0" />
      <path
         style="fill:#a2b89c;fill-rule:evenodd"
         id="path7"
         d="M 88.426714,316.50145 C 103.10571,279.64745 126.539,229.949 144.259,194.513 c 1.354,-2.707 6.394,-12.671 -0.996,-13.337 -3.594,-0.324 -12.658,19.844 -14.69,23.673 -9.9,18.651 -19.193,37.613 -27.831,56.885 -7.938,17.71 -15.672,35.304 -22.563,53.445"
         inkscape:connector-curvature="0"
         sodipodi:nodetypes="ccccsc" />
      <path
         style="fill:#a2b89c;fill-rule:evenodd"
         id="path9"
         d="M 72.081277,317.60762 C 83.363277,291.07162 86.133,284.546 97.416,258.011 c 6.228,-14.648 10.671,-30.121 17.007,-44.686 2.655,-6.104 11.607,-18.574 9.306,-25.637 -2.442,-7.495 -6.274,-1.561 -8.073,2.035 -14.608,29.213 -24.907,60.309 -38.058,90.159 -6.36,14.437 -9.615477,22.3159 -15.903477,36.7819"
         inkscape:connector-curvature="0"
         sodipodi:nodetypes="ccccccc" />
      <path
         style="fill:#a2b89c;fill-rule:evenodd"
         id="path11"
         d="m 54.132,72.779 c 1.536,8.521 3.071,17.042 4.607,25.563 0.232,1.288 0.229,5.689 1.498,6.454 1.129,0.681 3.424,0.003 3.345,-1.32 -0.25,-4.178 -3.694,-19.118 -1.31,-22.286 2.072,-2.754 9.848,-1.324 13.05,-1.41 2.67,-0.071 33.341,1.938 21.68,-6.798 C 93.018,69.998 84.884,71.795 80.273,71.78 71.604,71.751 62.936,71.722 54.267,71.693 c 0.039,0.376 -0.154,1.228 -0.135,1.086"
         inkscape:connector-curvature="0" />
      <path
         style="fill:#a2b89c;fill-rule:evenodd"
         id="path13"
         d="m 57.93,151.058 c 0.248,4.777 0.17,9.574 1.357,14.245 1.817,7.152 3.904,7.882 10.959,8.748 9.734,1.195 19.592,1.292 29.386,1.292 19.502,0 39.029,-0.69 58.526,-1.155 21.408,-0.511 42.833,0.359 64.226,1.141 10.212,0.374 20.429,0.862 30.635,1.366 7.145,0.353 5.133,-6.807 5.834,-11.391 1.218,-7.963 0.587,-17.875 0.401,-26.597 -0.093,-4.359 0.388,-9.566 -5.218,-10.372 -5.02,-0.721 -2.295,19.056 -2.248,23.21 0.025,2.167 -2.119,1.541 -2.433,2.634 -0.895,3.121 0.442,8.533 0.814,12.21 -37.98,0.703 -75.942,-0.791 -113.925,-0.442 -18.001,0.165 -35.899,0.843 -53.894,0.849 -4.17,0.001 -8.181,0.327 -12.315,0.845 -2.04,0.255 -4.605,-12.467 -5.29,-14.756 -0.843,-2.816 -5.286,-4.67 -6.815,-1.827"
         inkscape:connector-curvature="0" />
      <path
         style="fill:#a2b89c;fill-rule:evenodd"
         id="path15"
         d="m 76.517,91.907 c -0.615,5.423 7.315,4.08 11.108,4.313 5.45,0.335 10.924,0.767 16.385,0.85 11.141,0.169 22.268,0.324 33.409,0.155 20.82,-0.314 41.606,-0.298 62.417,-0.298 10.41,0 20.689,-0.199 31.038,-1.417 5.629,-0.662 12.899,-2.1 7.627,-8.69 -2.473,-3.09 -7.279,-1.665 -11.051,-1.644 -14.425,0.083 -28.851,0.165 -43.276,0.247 -18.396,0.105 -36.79,0.092 -55.181,0.566 -14.156,0.365 -28.312,0.73 -42.468,1.096 -4.226,0.11 -10.989,-0.875 -10.008,4.822"
         inkscape:connector-curvature="0" />
      <path
         style="fill:#a2b89c;fill-rule:evenodd"
         id="path17"
         d="M 76.109,26.109 C 75.94,38.313 79.351,60.511 94.832,62.739 85.385,48.138 74.971,26.309 93.61,13.628 c 14.458,-9.836 43.351,-7.979 51.77,9.692 4.053,8.507 2.049,17.164 -1.663,25.419 -1.414,3.144 -3.143,6.254 -5.065,9.115 -1.552,2.311 -6.39,5.875 -7.055,8.275 -0.926,3.345 2.872,7.803 6.24,7.055 6.065,-1.347 12.708,-16.545 14.5,-21.77 4.102,-11.959 5.085,-22.172 -2.168,-32.808 C 143.992,9.548 133.918,2.489 123.119,0.738 112.66,-0.959 100.049,0.124 90.669,5.44 81.498,10.638 79.17,17.094 76.109,26.109"
         inkscape:connector-curvature="0" />
      <path
         style="fill:#a2b89c;fill-rule:evenodd"
         id="path19"
         d="m 157.508,39.133 c 1.862,8.796 3.452,19.031 9.653,26.003 8.568,9.634 4.047,-2.383 2.112,-7.48 -5.921,-15.601 -3.951,-40.08 15.635,-45.189 15.661,-4.085 39.999,7.277 36.665,26.603 -1.651,9.573 -5.196,18.796 -12.194,25.795 -2.365,2.365 -5.962,4.052 -2.352,6.761 2.604,1.954 5.65,0.951 8.275,-0.611 18.449,-10.978 16.761,-44.644 2.17,-57.522 C 208.356,5.447 191.788,2.282 180.3,5.625 165.128,10.04 160.416,25.629 157.508,39.133"
         inkscape:connector-curvature="0" />
      <path
         style="fill:#a2b89c;fill-rule:evenodd"
         id="path21"
         d="m 184.235,183.211 c 13.34,40.333 29.805,79.515 43.795,119.62 3.252,9.322 2.48729,6.05928 4.94929,15.61428 l 6.55507,-0.59019 C 230.75936,278.91909 217.135,250.992 202.248,214.193 c -3.112,-7.691 -5.7,-15.882 -9.897,-23.079 -1.425,-2.442 -5.942,-11.88 -8.116,-7.903"
         inkscape:connector-curvature="0"
         sodipodi:nodetypes="ccccccc" />
      <path
         style="fill:#a2b89c;fill-rule:evenodd"
         id="path23"
         d="m 201.194,191.758 c 16.91,38.127 31.48376,86.65613 43.04776,126.66713 L 254.382,318.707 c -8.088,-28.838 -16.146,-57.954 -25.511,-86.384 -4.126,-12.524 -10.855,-23.913 -15.911,-36.043 -1.609,-3.859 -8.594,-11.034 -11.766,-4.522"
         inkscape:connector-curvature="0"
         sodipodi:nodetypes="cccccc" />
      <path
         style="fill:#a2b89c;fill-rule:evenodd"
         id="path25"
         d="m 218.695,73.05 c 4.619,10.715 29.756,-2.438 31.881,7.123 1.337,6.014 -1.288,8.442 2.85,13.635 0.742,0.931 2.05,1.402 2.713,2.306 1.315,1.794 1.062,4.556 4.639,5.809 4.008,1.403 7.999,1.36 12.18,1.723 4.729,0.412 7.385,2.544 11.537,4.136 2.69,1.031 3.314,1.094 6.48,0.552 7.097,-1.214 10.632,-4.496 12.141,2.945 0.744,3.667 0.8,11.569 3.356,14.275 1.159,1.228 6.903,3.418 6.599,0.321 -1.214,-12.363 -2.429,-24.727 -3.644,-37.09 -0.266,-2.703 -4.124,-2.567 -6.145,-1.761 -2.223,0.888 1.229,9.959 -0.474,11.396 -0.612,0.517 -4.731,-0.085 -5.698,0 -5.992,0.526 -10.575,1.375 -16.717,0.095 -7.365,-1.535 -14.539,-4.695 -22.22,-3.623 0.207,-3.728 3.309,-20.622 0.519,-22.435 -6.051,-3.932 -13.355,-3.084 -20.225,-2.593 -3.12,0.223 -19.779,-1.102 -19.772,3.186"
         inkscape:connector-curvature="0" />
      <path
         style="fill:#a2b89c;fill-rule:evenodd"
         id="path27"
         d="m 258.039,117.142 c 1.944,5.02 5.438,5.426 10.346,5.403 4.028,-0.019 26.357,3.468 26.013,-3.504 -0.399,-8.057 -33.407,-4.346 -36.359,-1.899"
         inkscape:connector-curvature="0" />
      <path
         style="fill:#a2b89c;fill-rule:evenodd"
         id="path29"
         d="m 261.293,206.953 c -0.052,0.61 0.159,1.245 -0.135,1.899 2.186,-2.378 3.153,-4.789 3.392,-8.004 -1.255,1.64 -3.034,4.145 -3.257,6.105"
         inkscape:connector-curvature="0" />
      <path
         style="fill:#f5cb24;fill-opacity:1;fill-rule:evenodd"
         id="path31"
         d="m 62.679,105.067 c 2.123,21.772 4.246,43.544 6.369,65.317 0.106,1.092 52.458,0.733 55.9,0.776 29.665,0.373 59.33,0.746 88.995,1.118 2.94,0.037 14.643,2.103 17.098,0.215 1.214,-0.934 1.475,-7.711 1.748,-9.138 1.437,-7.51 2.873,-15.02 4.31,-22.53 2.141,-11.196 4.282,-22.392 6.424,-33.587 -30.466,-0.343 -60.932,-0.686 -91.397,-1.029 -20.76,-0.233 -41.519,-0.467 -62.279,-0.701 -8.805,-0.098 -18.636,0.666 -27.168,-0.441"
         inkscape:connector-curvature="0" />
      <path
         style="fill-rule:evenodd"
         id="path33"
         d="m 1.085,166.389 c -0.932,8.286 5.496,6.979 10.175,3.392 9.549,-7.32 19.808,-13.604 29.344,-20.973 3.126,-2.416 12.541,-6.861 13.797,-10.501 0.515,-1.493 -1.752,-7.527 -3.616,-6.319 -13.084,8.482 -26.169,16.965 -39.254,25.448 -0.859,-21.074 -1.718,-42.147 -2.578,-63.221 8.64,1.468 15.211,6.766 22.52,11.125 4.143,2.471 11.86,8.673 13.075,1.291 0.636,-3.869 2.559,-11.805 -4.527,-11.059 -3.421,0.36 -0.49,3.736 -5.055,1.979 C 32.546,96.62 30.269,95.429 28.012,94.164 24.835,92.385 21.793,90.379 18.585,88.652 15.589,87.039 12.06,85.104 8.703,84.455 4.068,83.558 0.688,81.67 0.2,87.29 c -0.725,8.345 0.693,16.733 1.356,25.038 1.452,18.155 1.044,35.915 -0.471,54.061"
         inkscape:connector-curvature="0" />
      <path
         style="fill-rule:evenodd"
         id="path35"
         d="M 87.567871,317.75513 C 102.27587,280.82313 125.43,234.648 142.203,198.719 c 1.267,-2.714 6.479,-12.682 -0.976,-13.338 -3.538,-0.311 -12.681,19.734 -14.69,23.567 -9.821,18.731 -19.177,37.688 -27.831,56.991 -7.94,17.71 -15.672,35.304 -22.563,53.445"
         inkscape:connector-curvature="0"
         sodipodi:nodetypes="csccsc" />
      <path
         style="fill-rule:evenodd"
         id="path37"
         d="M 71.449694,318.36102 C 82.699694,291.82502 84.002,288.752 95.252,262.217 c 6.223,-14.676 10.799,-30.118 17.135,-44.688 2.641,-6.072 11.604,-18.634 9.306,-25.636 -2.463,-7.504 -6.275,-1.558 -8.072,2.035 -14.616,29.229 -24.904,60.297 -38.058,90.16 -6.36,14.439 -7.962745,18.52507 -14.255745,32.99407"
         inkscape:connector-curvature="0"
         sodipodi:nodetypes="cccccsc" />
      <path
         style="fill-rule:evenodd"
         id="path39"
         d="m 52.097,76.984 c 1.536,8.521 3.071,17.042 4.607,25.564 0.232,1.288 0.228,5.688 1.498,6.454 1.126,0.679 3.423,-0.022 3.345,-1.319 -0.25,-4.168 -3.693,-19.132 -1.311,-22.287 2.072,-2.743 9.722,-1.323 12.961,-1.41 2.675,-0.071 33.434,1.953 21.77,-6.798 -3.98,-2.986 -12.121,-1.187 -16.729,-1.202 -8.668,-0.029 -17.337,-0.058 -26.006,-0.087 0.038,0.375 -0.154,1.228 -0.135,1.085"
         inkscape:connector-curvature="0" />
      <path
         style="fill-rule:evenodd"
         id="path41"
         d="m 55.896,155.264 c 0.243,4.71 0.062,9.631 1.22,14.245 1.771,7.057 4.136,7.894 10.969,8.748 9.187,1.149 18.533,1.291 27.779,1.291 19.584,0 39.149,-1.002 58.726,-1.238 21.587,-0.26 43.149,0.407 64.72,1.187 9.979,0.36 19.966,0.825 29.94,1.318 8.96,0.442 6.13,-4.441 7.296,-11.17 1.273,-7.349 0.814,-16.877 0.674,-25.127 -0.066,-3.902 1.061,-11.215 -4.744,-11.91 -6.041,-0.723 -2.884,17.603 -2.857,22.289 0.014,2.48 -1.556,2.035 -1.891,3.353 -0.789,3.102 -0.095,8.268 0.271,12.345 -37.979,0.71 -75.942,-0.791 -113.924,-0.442 -17.956,0.165 -35.809,0.843 -53.759,0.85 -4.17,0.001 -8.182,0.328 -12.316,0.844 -2.041,0.255 -4.605,-12.466 -5.29,-14.756 -0.842,-2.817 -5.286,-4.67 -6.814,-1.827"
         inkscape:connector-curvature="0" />
      <path
         style="fill-rule:evenodd"
         id="path43"
         d="m 74.482,96.113 c -0.615,5.423 7.315,4.08 11.108,4.313 5.449,0.335 10.924,0.768 16.384,0.85 11.141,0.168 22.268,0.323 33.409,0.154 20.82,-0.315 41.606,-0.298 62.417,-0.298 10.408,0 20.69,-0.199 31.038,-1.417 5.583,-0.657 12.902,-2.113 7.628,-8.69 -2.408,-3.002 -5.985,-1.803 -9.873,-1.775 -14.169,0.101 -28.338,0.202 -42.507,0.303 -18.53,0.132 -37.063,0.123 -55.587,0.602 -14.208,0.366 -28.415,0.733 -42.623,1.1 -4.332,0.112 -12.211,-1.427 -11.394,4.858"
         inkscape:connector-curvature="0" />
      <path
         style="fill-rule:evenodd"
         id="path45"
         d="M 74.074,30.315 C 73.901,42.718 77.262,64.316 92.66,66.945 83.922,52.056 72.568,30.8 91.44,17.834 c 14.456,-9.933 43.503,-7.954 51.905,9.692 4.051,8.509 2.05,17.163 -1.664,25.42 -1.398,3.11 -3.172,6.277 -5.065,9.114 -1.553,2.328 -6.443,5.933 -7.055,8.276 -0.959,3.672 3.069,7.987 6.648,6.919 7.133,-2.127 13.097,-18.733 15.211,-24.899 3.844,-11.212 3.2,-21.906 -4.549,-31.021 C 139.264,12.386 131.054,6.563 119.356,4.665 99.389,1.425 78.444,10.19 74.074,30.315"
         inkscape:connector-curvature="0" />
      <path
         style="fill-rule:evenodd"
         id="path47"
         d="m 155.473,43.339 c 1.871,8.836 3.426,19.003 9.653,26.003 8.627,9.698 3.843,-2.399 2.091,-7.48 -5.428,-15.743 -4.326,-39.973 15.656,-45.188 15.661,-4.088 39.999,7.278 36.665,26.602 -1.651,9.572 -5.195,18.798 -12.194,25.795 -2.367,2.366 -5.959,4.05 -2.352,6.761 2.602,1.956 5.651,0.951 8.275,-0.61 C 231.771,64.213 229.911,30.641 215.438,17.7 206.388,9.607 189.703,6.518 178.265,9.831 163.083,14.226 158.38,29.833 155.473,43.339"
         inkscape:connector-curvature="0" />
      <path
         style="fill-rule:evenodd"
         id="path49"
         d="m 182.2,187.417 c 13.339,40.324 33.24173,89.05647 46.95073,129.24947 1.73936,1.73035 7.92771,3.57443 7.41372,1.24459 C 227.96665,278.93844 215.104,255.194 200.213,218.4 c -3.061,-7.562 -5.82,-15.321 -9.602,-22.572 -1.215,-2.331 -5.788,-12.391 -8.411,-8.411"
         inkscape:connector-curvature="0"
         sodipodi:nodetypes="ccsccc" />
      <path
         style="fill-rule:evenodd"
         id="path51"
         d="m 199.159,195.964 c 16.902,38.107 30.38014,82.84225 41.94014,122.83525 l 10.14206,0.16979 C 243.1352,290.07304 236.778,264.204 226.64,235.978 c -4.391,-12.225 -10.73,-23.532 -15.715,-35.493 -1.61,-3.861 -8.592,-11.038 -11.766,-4.521"
         inkscape:connector-curvature="0"
         sodipodi:nodetypes="cccscc" />
      <path
         style="fill-rule:evenodd"
         id="path53"
         d="m 216.66,77.256 c 4.358,10.919 29.728,-2.531 31.882,7.123 1.354,6.068 -1.403,8.417 2.849,13.634 0.763,0.936 2.043,1.399 2.713,2.307 1.317,1.784 1.062,4.557 4.639,5.809 3.968,1.388 8.026,1.362 12.18,1.724 4.725,0.411 7.408,2.562 11.537,4.135 2.655,1.012 3.369,1.084 6.445,0.553 7.08,-1.223 10.534,-4.473 12.04,2.945 0.767,3.777 0.838,11.571 3.492,14.275 1.134,1.155 6.772,3.466 6.463,0.321 -1.214,-12.363 -2.429,-24.727 -3.643,-37.09 -0.189,-1.924 -2.53,-2.701 -4.313,-2.167 -4.012,1.199 -2.124,7.985 -2.17,11.803 -5.979,-0.63 -11.52,1.516 -17.471,1.02 -9.285,-0.774 -17.628,-5.499 -27.164,-4.683 0.186,-3.32 0.371,-6.639 0.557,-9.959 0.133,-2.361 1.9,-9.825 0.665,-11.884 -3.121,-5.202 -15.211,-3.435 -19.943,-3.12 -3.024,0.199 -20.876,-1.044 -20.758,3.254"
         inkscape:connector-curvature="0" />
      <path
         style="fill-rule:evenodd"
         id="path55"
         d="m 256.003,121.347 c 1.796,5.007 5.451,5.426 10.232,5.404 4.013,-0.019 26.499,3.464 26.126,-3.504 -0.435,-8.124 -33.409,-4.34 -36.358,-1.9"
         inkscape:connector-curvature="0" />
      <path
         style="fill-rule:evenodd"
         id="path57"
         d="m 259.258,211.159 c -0.057,0.552 0.102,1.25 -0.135,1.898 2.185,-2.378 3.153,-4.789 3.392,-8.003 -1.294,1.645 -3.036,4.157 -3.257,6.105"
         inkscape:connector-curvature="0" />
      <path
         style="fill:#f5cb24;fill-opacity:1;fill-rule:evenodd"
         id="path59"
         d="m 14.652,150.109 c -0.452,-9.858 -0.905,-19.717 -1.357,-29.576 1.99,4.975 3.979,9.949 5.969,14.923 1.221,-5.698 2.442,-11.396 3.664,-17.094 1.447,6.015 2.894,12.029 4.341,18.044 1.628,-6.919 3.255,-13.838 4.883,-20.757 2.804,6.015 5.608,12.029 8.412,18.044 2.261,-5.698 4.523,-11.396 6.784,-17.094 1.06,4.329 2.12,8.657 3.18,12.986 0.242,0.989 -7.357,4.489 -8.263,4.998 -9.204,5.175 -18.408,10.351 -27.613,15.526"
         inkscape:connector-curvature="0" />
      <path
         style="fill-rule:evenodd"
         id="path61"
         d="m 74.21,248.602 c 9.451,-20.033 18.902,-40.066 28.354,-60.1 -14.29,0 -28.58,0 -42.87,0 11.146,2.237 22.384,4.076 33.51,6.377 -6.331,17.908 -12.662,35.815 -18.994,53.723"
         inkscape:connector-curvature="0" />
      <path
         style="fill-rule:evenodd"
         id="path65"
         d="m 252.883,232.729 c -6.965,-12.617 -13.929,-25.233 -20.894,-37.85 12.934,0 25.867,0 38.801,0 -1.401,-14.788 -2.804,-29.576 -4.205,-44.363 3.482,16.506 6.964,33.012 10.446,49.518 -12.571,-1.04 -25.144,-2.08 -37.715,-3.12 4.453,11.682 10.247,24.439 13.567,35.815"
         inkscape:connector-curvature="0" />
      <path
         style="fill-rule:evenodd"
         id="path67"
         d="m 38.394,71.287 c -0.678,-5.924 -1.357,-11.848 -2.035,-17.772 11.532,1.764 23.063,3.527 34.595,5.291 -2.442,-8.095 -4.883,-16.189 -7.325,-24.284 -0.832,4.192 -0.583,16.23 -5.498,15.277 -8.297,-1.61 -16.595,-3.22 -24.892,-4.83 1.718,8.771 3.437,17.545 5.155,26.318"
         inkscape:connector-curvature="0" />
    </g>
    <rect
       style="color:#000000;fill:none;stroke:none;stroke-width:1.35000002;marker:none;visibility:visible;display:inline;overflow:visible;enable-background:accumulate"
       id="rect3091"
       width="328.64999"
       height="328.64999"
       x="156.85715"
       y="87.426476" />
  </g>
</svg>
